<?xml version="1.0" encoding="utf-8"?>
<!-- Generator: Adobe Illustrator 16.0.0, SVG Export Plug-In . SVG Version: 6.00 Build 0)  -->
<!DOCTYPE svg PUBLIC "-//W3C//DTD SVG 1.1//EN" "http://www.w3.org/Graphics/SVG/1.1/DTD/svg11.dtd">
<svg version="1.1" id="Layer_1" xmlns="http://www.w3.org/2000/svg" xmlns:xlink="http://www.w3.org/1999/xlink" x="0px" y="0px"
	 width="209px" height="210px" viewBox="0 0 209 210" enable-background="new 0 0 209 210" xml:space="preserve">
<path fill-rule="evenodd" clip-rule="evenodd" fill="#FFFFFF" d="M78,200.712c0-28.648,0-57.297,0-86.578c-9.947,0-19.512,0-29.98,0
	c0-6.543-0.002-12.48,0.001-18.417c0.003-4.166,0.106-8.334-0.011-12.495c-0.085-3.017,1.166-4.071,4.166-4.02
	c8.299,0.143,16.602,0.049,25.672,0.049c0-8.776-0.111-17.027,0.031-25.274c0.146-8.392,1.643-16.475,5.647-24.032
	c6.681-12.609,17.601-19.012,31.247-20.266c9.574-0.879,19.306-0.001,28.967-0.008c4.002-0.003,5.551,1.683,5.407,5.779
	c-0.263,7.488-0.154,14.993-0.048,22.489c0.043,2.995-1.094,4.022-4.119,4.061c-7.303,0.093-14.622,0.313-21.896,0.927
	c-4.867,0.41-8.207,3.734-8.656,8.373c-0.816,8.422-0.877,16.929-0.896,25.4c-0.001,0.845,2.436,2.39,3.773,2.429
	c7.991,0.231,15.992,0.116,23.989,0.118c1.782,0,3.565,0,6.056,0c-0.867,7.219-1.57,13.765-2.466,20.285
	c-0.63,4.587,0.001,11.016-2.7,13.204c-2.996,2.427-9.139,1.058-13.916,1.174c-4.789,0.115-9.583,0.025-14.93,0.025
	c0,2.274,0,4.058,0,5.841c0,24.992,0.008,49.983-0.015,74.976c-0.002,1.986-0.21,3.974-0.323,5.96
	C101.334,200.712,89.666,200.712,78,200.712z"/>
</svg>
