<?xml version="1.0" encoding="utf-8"?>
<!-- Generator: Adobe Illustrator 16.0.0, SVG Export Plug-In . SVG Version: 6.00 Build 0)  -->
<!DOCTYPE svg PUBLIC "-//W3C//DTD SVG 1.1//EN" "http://www.w3.org/Graphics/SVG/1.1/DTD/svg11.dtd">
<svg version="1.1" id="Layer_1" xmlns="http://www.w3.org/2000/svg" xmlns:xlink="http://www.w3.org/1999/xlink" x="0px" y="0px"
	 width="209px" height="210px" viewBox="0 0 209 210" enable-background="new 0 0 209 210" xml:space="preserve">
<path fill-rule="evenodd" clip-rule="evenodd" fill="#FAFCFC" d="M172.497,95.13c-0.373-2.342-1.318-3.075-3.533-3.07
	c-19.994,0.047-39.989,0.064-59.984,0.004c-2.464-0.007-3.207,1.152-3.219,3.306c-0.036,6.994-0.024,13.989-0.159,20.981
	c-0.063,3.287,2.194,2.712,4.111,2.716c9.831,0.019,19.662,0.04,29.492-0.021c3.339-0.021,3.898,0.574,2.957,4.331
	c-5.185,20.684-33.001,29.208-52.431,20.454c-11.665-5.255-19.16-13.966-23.158-26.763c-5.129-16.416-1.107-29.904,9.848-41.731
	c9.486-10.24,21.739-14.612,35.686-12.164c6.902,1.212,13.834,3.244,18.953,8.583c1.006,1.049,1.539,0.977,2.213,0.317
	c6.325-6.193,12.601-12.438,18.866-18.692c0.188-0.188,0.108-0.643,0.152-0.972c-4.578-4.164-9.616-7.682-15.065-10.6
	c-7.512-4.024-15.677-5.897-24.021-7.15c-1.629-0.108-3.258-0.216-4.887-0.323c-1.013-0.01-2.025-0.02-3.038-0.029
	c-2.641,0.119-5.281,0.238-7.921,0.358c-1.495,0.958-3.179,0.739-4.822,0.781c-2.001,0.508-4.003,1.016-6.003,1.525
	c-15.633,4.987-28.453,13.846-38.123,27.243c-4.729,6.552-8.203,13.692-11.121,21.16c0.425,1.01,0.301,1.992-0.145,2.96
	c-0.522,2.696-1.045,5.392-1.567,8.088c-0.02,5.291-0.039,10.582-0.059,15.873c0.237,0.77,0.587,1.522,0.694,2.31
	c1.855,13.746,7.598,25.771,16.13,36.569c2.729,2.666,5.46,5.333,8.19,7.998c0.002-0.001-0.109-0.017-0.109-0.017
	c3.519,1.272,5.936,4.148,8.951,6.152l0.002-0.028c7.059,3.342,14.006,7.021,21.85,8.225c7.73,1.186,15.002,3.236,23.422,1.55
	c10.025-2.008,19.255-5.053,28.192-9.696c6.577-3.416,13.03-8.327,16.642-13.759C170.677,134.765,175.784,115.731,172.497,95.13z"/>
</svg>
