<?xml version="1.0" encoding="utf-8"?>
<!-- Generator: Adobe Illustrator 16.0.0, SVG Export Plug-In . SVG Version: 6.00 Build 0)  -->
<!DOCTYPE svg PUBLIC "-//W3C//DTD SVG 1.1//EN" "http://www.w3.org/Graphics/SVG/1.1/DTD/svg11.dtd">
<svg version="1.1" id="Layer_1" xmlns="http://www.w3.org/2000/svg" xmlns:xlink="http://www.w3.org/1999/xlink" x="0px" y="0px"
	 width="209px" height="210px" viewBox="0 0 209 210" enable-background="new 0 0 209 210" xml:space="preserve">
<path fill-rule="evenodd" clip-rule="evenodd" fill="#ECF7F7" d="M151.028,71.775c1.861-1.974,3.95-3.65,5.271-5.8
	c0.756-1.231,3.111-2.606,1.798-4.132c-1.577-1.831-3.069,0.185-4.533,1.146c-1.351,0.887-3.229,0.281-4.646,1.39
	c-2.906,2.274-5.348,1.845-8.328-0.564c-5.13-4.149-11.225-5.606-17.827-4.021c-6.216,0.632-10.859,3.947-14.354,8.859
	c-2.595,3.647-5.533,7.284-4.783,12.299c0.931,6.225-0.368,6.907-6.937,5.801c-11.953-2.014-22.146-7.576-31.833-14.416
	c-1.438-1.726-2.688-3.66-4.349-5.134c-4.423-3.928-4.572-3.818-5.809,2.216c-1.598,6.521-0.994,12.667,2.746,18.44
	c1.312,2.026,5.089,3.792,3.874,5.736c-1.725,2.759-4.495-1.283-7.028-0.837c-0.24,0.043-0.43,0.379-0.762,0.689
	c0.884,8.765,5.496,14.951,13.337,18.893c0.758,0.529,1.517,1.059,2.293,1.601c-0.821,1.418-2.139,1.171-3.173,1.024
	c-4.499-0.635-4.352,1.187-2.451,4.239c2.326,3.738,5.297,6.762,9.215,8.815c0.347,0.116,0.693,0.231,1.039,0.348
	c1.645,0.936,3.287,1.87,4.932,2.806c0.326,0.015,0.653,0.029,0.98,0.044c2.197,1.242,0.367,1.76-0.488,2.172
	c-4.156,2.004-8.355,3.914-12.54,5.856c-0.665,0.134-1.33,0.268-1.995,0.401c-4.677,0.382-9.354,0.763-14.859,1.212
	c14.314,8.196,28.593,12.125,44.314,8.78c0.852-0.101,1.702-0.201,2.553-0.302c4.34-0.178,8.316-1.67,12.236-3.368
	c0.335,0.027,0.584-0.105,0.746-0.399c1.127-0.069,2.173-0.342,2.989-1.191c20.339-9.789,31.942-26.123,36.02-48.093l0.306-0.266
	c0,0-0.108-0.359-0.107-0.359c0.18-1.102,0.361-2.203,0.543-3.305c0.123-1.656,0.248-3.313,0.371-4.971
	c0.158-0.278,0.154-0.555-0.012-0.829c0.01-0.46,0.02-0.921,0.029-1.383c0.186-0.266,0.193-0.534,0.021-0.807
	c0.249-1.488,0.503-2.976,1.744-4.034l0.095-0.03c3.181-2.263,6.365-4.522,7.514-8.568
	C156.347,70.293,153.875,74.103,151.028,71.775z"/>
</svg>
